# Blender v2.91.2 OBJ File: 'Model.blend'
# www.blender.org
mtllib Model.mtl
o Cube
v 1.000000 1.000000 -1.000000
v 1.000000 -1.000000 -1.000000
v -1.000000 1.000000 -1.000000
v -1.000000 -1.000000 -1.000000
v 1.000000 1.000000 0.222166
v 1.000000 0.222166 1.000000
v 1.000000 -0.222166 1.000000
v 1.000000 -1.000000 0.222166
v -1.000000 0.222166 1.000000
v -1.000000 1.000000 0.222166
v -1.000000 -1.000000 0.222166
v -1.000000 -0.222166 1.000000
vt 0.375000 0.750000
vt 0.527771 0.750000
vt 0.527771 1.000000
vt 0.375000 1.000000
vt 0.375000 0.000000
vt 0.527771 0.000000
vt 0.625000 0.097229
vt 0.625000 0.152771
vt 0.527771 0.250000
vt 0.375000 0.250000
vt 0.125000 0.500000
vt 0.375000 0.500000
vt 0.125000 0.750000
vt 0.527771 0.500000
vt 0.625000 0.597229
vt 0.625000 0.652771
vt 0.625000 0.750000
vt 0.625000 1.000000
vt 0.625000 0.250000
vt 0.625000 0.500000
vt 0.875000 0.597229
vt 0.875000 0.652771
vn 0.0000 -1.0000 -0.0000
vn -1.0000 0.0000 0.0000
vn 0.0000 0.0000 -1.0000
vn 1.0000 0.0000 0.0000
vn 0.0000 1.0000 0.0000
vn 0.0000 -0.7071 0.7071
vn 0.0000 0.7071 0.7071
vn 0.0000 0.0000 1.0000
usemtl Material
s off
f 2/1/1 8/2/1 11/3/1 4/4/1
f 4/5/2 11/6/2 12/7/2 9/8/2 10/9/2 3/10/2
f 3/11/3 1/12/3 2/1/3 4/13/3
f 1/12/4 5/14/4 6/15/4 7/16/4 8/2/4 2/1/4
f 3/10/5 10/9/5 5/14/5 1/12/5
usemtl Material.001
f 7/17/6 12/18/6 11/3/6 8/2/6
f 9/19/7 6/20/7 5/14/7 10/9/7
usemtl Material.002
f 6/15/8 9/21/8 12/22/8 7/16/8
